<svg xmlns="http://www.w3.org/2000/svg" viewBox="0 0 500 500">
  <style>
    #bg {
      fill: #171717
    }

    @media (prefers-color-scheme: dark) {
      #bg {
        fill: #ffffff
      }
    }
  </style>
  <path id="bg"
    d="M.5 154.7c0-15.32 12.41-27.72 27.72-27.72H239.6v72.77H.5V154.7ZM.5 213.61h239.1v72.77H.5zM.5 300.24h239.1v72.77H28.22C12.9 373.01.5 360.6.5 345.29v-45.05ZM253.47 126.98h72.77v72.77h-72.77zM426.73 126.98h45.05c15.32 0 27.72 12.41 27.72 27.72v45.05h-72.77v-72.77ZM426.73 213.61H253.47v72.77H499.5v-72.77h-72.77zM253.47 300.24h72.77v72.77h-72.77zM426.73 300.24h72.77v45.05c0 15.32-12.41 27.72-27.72 27.72h-45.05v-72.77Z" />
</svg>
